PathFileType	3	(X/Y/Z)	D:\Vicon Database\Healthy Subjects\S0040\Jan. 30, 2020\Force Plate Walk 10.trc
DataRate	CameraRate	NumFrames	NumMarkers	Units	OrigDataRate	OrigDataStartFrame	OrigNumFrames
100.0	100.0	4	53	mm	100.0	409	338	
Frame#	Time	right_foot_cluster2			right_foot_cluster3			sternum_cluster1			sternum_cluster2			sternum_cluster3			left_asis			right_asis			left_psis			right_psis			sacrum_cluster1			sacrum_cluster2			sacrum_cluster3			left_lat_femoral_epicondyle			left_anterior_thigh15			left_anterior_thigh25			left_anterior_thigh50			left_lateral_thigh25			left_lateral_thigh50			left_thigh_cluster1			left_thigh_cluster2			left_thigh_cluster3			left_fibular_head			left_tibial_tuberosity			left_anterior_shank30			left_lateral_malleolus			left_shank_cluster1			left_shank_cluster2			left_shank_cluster3			left_heel			left_metatarsal2			left_foot_cluster1			left_foot_cluster2			left_foot_cluster3			right_lat_femoral_epicondyle			right_anterior_thigh15			right_anterior_thigh25			right_anterior_thigh50			right_lateral_thigh25			right_lateral_thigh50			right_thigh_cluster1			right_thigh_cluster2			right_thigh_cluster3			right_fibular_head			right_tibial_tuberosity			right_lateral_distal_shank			right_anterior_shank30			right_lateral_malleolus			right_shank_cluster1			right_shank_cluster2			right_shank_cluster3			right_heel			right_metatarsal2			right_foot_cluster1			
		X1	Y1	Z1	X2	Y2	Z2	X3	Y3	Z3	X4	Y4	Z4	X5	Y5	Z5	X6	Y6	Z6	X7	Y7	Z7	X8	Y8	Z8	X9	Y9	Z9	X10	Y10	Z10	X11	Y11	Z11	X12	Y12	Z12	X13	Y13	Z13	X14	Y14	Z14	X15	Y15	Z15	X16	Y16	Z16	X17	Y17	Z17	X18	Y18	Z18	X19	Y19	Z19	X20	Y20	Z20	X21	Y21	Z21	X22	Y22	Z22	X23	Y23	Z23	X24	Y24	Z24	X25	Y25	Z25	X26	Y26	Z26	X27	Y27	Z27	X28	Y28	Z28	X29	Y29	Z29	X30	Y30	Z30	X31	Y31	Z31	X32	Y32	Z32	X33	Y33	Z33	X34	Y34	Z34	X35	Y35	Z35	X36	Y36	Z36	X37	Y37	Z37	X38	Y38	Z38	X39	Y39	Z39	X40	Y40	Z40	X41	Y41	Z41	X42	Y42	Z42	X43	Y43	Z43	X44	Y44	Z44	X45	Y45	Z45	X46	Y46	Z46	X47	Y47	Z47	X48	Y48	Z48	X49	Y49	Z49	X50	Y50	Z50	X51	Y51	Z51	X52	Y52	Z52	X53	Y53	Z53	
409	4.08	668.81647	100.17201	-275.81305	667.68646	104.06162	-313.04355	741.89667	1445.4299	-233.94998	728.87128	1418.4912	-225.174	729.10223	1421.2734	-263.0658	746.48608	1062.2838	-116.24637	733.55688	1078.9363	-364.24734	910.03772	1070.4609	-171.88988	906.91113	1080.1139	-289.68594	919.242	1132.0909	-234.3421	924.03381	1107.4901	-248.0291	927.66559	1099.4087	-209.29308	710.62665	541.34479	-87.311081	619.02509	623.43872	-123.69422	627.72333	713.42474	-112.79003	670.72974	848.41992	-106.56328	743.85107	679.84589	-75.561264	774.83368	824.35278	-54.931511	768.6145	779.44293	-48.649742	764.50476	750.07324	-51.213932	732.11426	766.52234	-40.988811	727.94702	477.92349	-74.425064	685.43115	435.99847	-124.88189	886.96924	278.83545	-143.92058	1007.8096	236.66254	-119.48064	724.27472	391.88068	-154.36079	743.20099	371.19913	-145.35081	748.75909	378.23694	-183.06876	1076.6937	272.38495	-166.02075	942.04779	100.93179	-146.8392	939.99744	176.83401	-139.48734	940.80481	147.24966	-129.509	928.59656	147.82956	-166.26872	719.13959	530.40808	-370.72278	651.5152	630.26086	-309.78967	647.2406	711.63623	-312.30881	664.04541	839.0528	-327.14084	737.04272	688.95685	-399.71112	757.86572	834.98871	-430.69351	757.72638	780.97729	-436.10175	743.36572	757.08411	-430.35919	780.32819	749.35925	-428.58374	729.01489	461.80725	-372.15347	678.0611	454.29794	-321.51709	764.19421	194.96857	-347.93228	720.23145	207.37903	-298.8186	778.15948	95.467041	-329.93723	699.34338	390.1149	-265.8822	707.42749	363.13712	-258.40955	682.30365	358.08826	-285.16714	857.98401	64.645309	-295.90698	635.93488	67.140129	-286.32355	692.61053	113.90237	-285.0202
410	4.09	668.53943	100.07793	-275.6969	667.44086	103.99344	-312.90411	727.90009	1447.7002	-233.66356	714.92706	1420.6786	-224.82355	714.96924	1423.4664	-262.75201	733.25897	1065.39	-116.60154	719.98901	1080.4755	-364.37778	896.57983	1073.626	-172.02748	893.49969	1083.2825	-290.18756	905.5979	1134.9828	-234.953	910.49225	1110.5422	-248.34076	914.21686	1102.3633	-209.80458	686.41534	545.909	-87.763649	597.01898	630.7821	-123.89589	608.08868	720.5899	-113.23097	654.73859	854.07861	-107.24937	723.12549	684.1911	-75.614822	757.75958	828.11932	-54.747528	750.42279	783.26166	-48.827595	745.81458	753.77014	-51.213779	713.41449	770.91779	-41.047302	702.74707	481.52121	-75.487915	657.86188	441.38242	-125.84619	853.71039	277.07114	-144.54137	973.52954	230.8566	-120.77671	695.55841	396.36047	-155.40062	713.73859	374.88934	-146.71024	719.60895	382.052	-184.19678	1043.9656	260.97296	-168.43192	899.06738	99.313774	-145.56343	901.89294	175.29813	-139.67732	900.7876	145.96576	-129.09024	888.552	146.58691	-165.80554	715.36774	530.61786	-370.06732	645.8786	628.9447	-309.27402	640.43732	710.09253	-311.6348	653.50916	838.35974	-326.63315	730.4715	689.48749	-398.82809	747.05811	835.63385	-429.66846	748.25812	781.9057	-435.49991	733.87689	757.6109	-429.88968	771.46967	750.69885	-428.02039	726.13031	462.14526	-371.60504	675.38147	454.01718	-321.147	761.86926	195.43994	-348.19907	719.02246	207.57784	-298.63028	777.90637	95.766541	-329.75909	696.31799	390.32312	-265.21719	705.27509	363.13614	-258.06046	680.14563	357.97232	-284.79037	857.74847	65.131325	-295.83069	635.69562	66.972198	-286.23209	692.40253	113.76557	-284.98199
411	4.1	668.3963	99.962891	-275.59875	667.1524	103.98543	-312.82516	713.88123	1449.858	-233.38077	701.0014	1422.7838	-224.52246	700.83942	1425.62	-262.40485	719.96326	1068.3046	-117.00321	706.46405	1081.9084	-364.60403	882.95428	1076.5203	-172.17334	879.54596	1085.439	-289.91647	892.01776	1137.8105	-235.19231	896.94708	1113.3016	-248.983	900.65125	1105.3101	-210.16386	663.14429	550.32416	-88.00631	575.64856	638.0788	-124.05533	588.97589	727.69037	-113.63738	638.59351	860.02618	-107.75631	702.85443	688.63202	-75.445572	740.84338	831.87006	-54.346535	732.22894	787.00824	-48.315552	726.92859	757.7948	-51.145077	695.42035	775.73383	-40.865097	678.13208	485.21249	-76.45903	630.41229	446.75839	-126.3126	820.49567	274.96045	-145.51315	938.49591	223.89882	-121.96632	667.27417	400.56277	-155.9538	684.54803	378.37524	-147.35356	690.46844	385.44522	-184.85844	1010.613	248.77039	-170.53188	855.27631	97.561142	-144.13594	863.27228	173.29373	-139.50714	859.68439	144.67743	-128.24605	847.82361	145.18774	-165.03104	712.18439	530.84857	-369.74628	640.45654	627.65179	-309.1662	633.09863	708.71307	-311.1976	643.01129	837.53766	-326.26834	723.49707	690.06604	-398.34387	736.51501	836.48151	-429.17361	739.34241	782.79602	-435.07761	725.63733	758.15405	-429.14392	762.98474	752.07959	-427.608	723.64508	462.4519	-371.22894	672.82642	453.84479	-321.01089	761.05151	195.93651	-348.11011	718.03351	207.79152	-298.54504	777.63977	96.153954	-329.58203	694.52136	390.1105	-265.14178	703.00208	363.1514	-257.85098	678.1131	357.89505	-284.6235	857.75391	65.404457	-295.81787	635.52228	66.806	-286.2106	692.06317	113.92976	-284.71719
412	4.11	668.07782	99.947708	-275.54907	667.0592	103.86876	-312.86432	699.83539	1451.8422	-233.2182	687.07159	1424.7235	-224.29462	686.72156	1427.6155	-262.1467	706.50348	1070.9733	-117.45341	692.99359	1083.0645	-364.87756	869.18896	1078.9895	-172.36482	865.63837	1087.7174	-289.85968	878.26459	1140.4352	-235.52602	883.26691	1115.7982	-248.87952	887.07477	1108.0553	-210.15062	640.56952	554.77539	-88.178001	554.82477	645.16907	-124.25393	570.3089	734.62469	-113.97192	623.00128	865.56049	-108.30724	683.19244	692.98425	-75.12648	724.24194	835.56128	-53.768551	714.57581	790.64044	-47.994236	708.61011	761.53925	-50.635933	677.36102	780.10962	-40.785683	654.2785	489.06796	-77.374611	604.83832	452.34415	-127.02908	786.50952	272.07379	-145.73128	902.7066	216.0209	-122.95799	639.36517	404.5354	-156.50507	655.5401	381.52463	-147.63043	661.60291	388.2735	-185.06451	976.19891	235.52936	-172.36432	810.86353	95.738548	-142.64935	824.05969	170.72762	-139.21767	818.41528	142.71161	-127.52868	806.51807	143.45175	-164.24031	709.21783	531.15851	-369.20685	635.12042	626.36267	-309.25369	625.71588	707.35876	-311.01089	632.60962	836.65521	-326.12451	716.72229	690.5498	-397.78482	725.33276	837.17822	-428.10126	730.54376	783.64465	-434.69415	717.19055	758.75262	-428.70203	754.9516	753.42694	-427.06165	721.40588	463.04099	-371.00876	670.46155	453.69754	-321.00659	760.09332	196.54842	-348.03293	717.36127	207.99771	-298.49054	777.15948	96.575851	-329.34348	692.38751	390.15775	-264.95334	700.93372	363.23993	-257.57422	676.11298	357.87585	-284.53455	857.05481	65.817459	-295.73923	635.34216	66.6745	-286.20728	691.80896	113.91605	-284.64337
